<svg id="图层_1" data-name="图层 1" xmlns="http://www.w3.org/2000/svg" viewBox="0 0 593.32 442.37"><defs><style>.cls-1{fill:#221714;}</style></defs><path class="cls-1" d="M350.52,458H336.26a5.68,5.68,0,0,0-5.68,5.68v67.3a5.87,5.87,0,0,0,5.87,5.87h14.17c22.7,0,35.73-14.44,35.73-39.62C386.35,472.26,373.29,458,350.52,458ZM350,525.45H342.9a.57.57,0,0,1-.57-.58v-55a.57.57,0,0,1,.57-.58H350c16.16,0,24.36,9.38,24.36,27.87C374.4,510.08,370.18,525.45,350,525.45Z" transform="translate(-187.34 -95.71)"/><path class="cls-1" d="M491.85,458H445.69a5.68,5.68,0,0,0,0,11.36h16.53a.58.58,0,0,1,.58.58v60.92a6,6,0,0,0,6,6h0a6,6,0,0,0,5.95-5.95v-61a.58.58,0,0,1,.58-.58h16.53a5.68,5.68,0,0,0,0-11.36Z" transform="translate(-187.34 -95.71)"/><path class="cls-1" d="M553.27,502.77a.57.57,0,0,1,.32-.84c10-3.15,15.79-10.91,15.79-21.69,0-8.32-3.49-22.28-26.86-22.28h-18a5.64,5.64,0,0,0-5.64,5.64V531a5.83,5.83,0,0,0,5.83,5.84h.08a5.84,5.84,0,0,0,5.84-5.84V504.08a.57.57,0,0,1,.57-.58h8.4a.58.58,0,0,1,.49.28l18.61,31.05a4.07,4.07,0,0,0,3.5,2h3.95a4.35,4.35,0,0,0,3-1,4.06,4.06,0,0,0,.77-5.11ZM530.63,469.9a.57.57,0,0,1,.57-.58h10.06c14.84,0,16.08,5.64,16.08,10.92,0,5.59-1.82,12-16.08,12H531.2a.57.57,0,0,1-.57-.57Z" transform="translate(-187.34 -95.71)"/><path class="cls-1" d="M221.73,502.77a.57.57,0,0,1,.33-.84c10-3.15,15.79-10.91,15.79-21.69,0-8.32-3.49-22.28-26.86-22.28H193a5.65,5.65,0,0,0-5.65,5.64V531a5.83,5.83,0,0,0,5.84,5.84h.07a5.83,5.83,0,0,0,5.84-5.84V504.08a.58.58,0,0,1,.57-.58h8.4a.61.61,0,0,1,.5.28l18.61,31.05a4.06,4.06,0,0,0,3.49,2h4a4.33,4.33,0,0,0,2.95-1,4.08,4.08,0,0,0,.78-5.11ZM199.09,469.9a.58.58,0,0,1,.57-.58h10.06c14.85,0,16.09,5.64,16.09,10.92,0,5.59-1.83,12-16.09,12H199.66a.58.58,0,0,1-.57-.57Z" transform="translate(-187.34 -95.71)"/><path class="cls-1" d="M350.06,221.83l.41-.42h0Z" transform="translate(-187.34 -95.71)"/><path class="cls-1" d="M429.44,198.78c-8.42-8.05-19.17-11.2-30-11.08s-20.73,5-29,13.37h0c-.14.14-.27.28-.4.43l-19.51,19.92a31,31,0,0,0,0,43.83l-.24-.24,58.3,57.08a6.39,6.39,0,1,0,8.95-9.12l-40.24-39.4h1c10.88-2.11,20-5.83,31.59-12.27,14.3-7.59,32.74-13.13,57.59-1.5A6.39,6.39,0,0,0,473,248.32c-17-8.32-30.78-8.35-45.71-5.61l2.9-3c10.42-11.21,10.27-30.2-.05-40.25l-.27-.29h0A4.69,4.69,0,0,0,429.44,198.78Zm-3,20.69c-.18,4.52-1.68,7.58-6.27,12.27L404.34,247.9c-7.46,7.67-17.09,12.67-26.22,12.89A33,33,0,0,1,355,251.72h0c-3.61-4.87-3.94-9.91-1.11-14.85l1.41-1.88,22-22.66.25-.22.07-.1c7.17-7.32,15.42-10.89,23.18-11A30.25,30.25,0,0,1,422,209.36l.19.2h0l.37.34A14,14,0,0,1,426.45,219.47Z" transform="translate(-187.34 -95.71)"/><path class="cls-1" d="M467.53,381.69l-.43-.41h0Z" transform="translate(-187.34 -95.71)"/><path class="cls-1" d="M444.47,302.3c-8.05,8.43-11.19,19.17-11.08,30.05s5,20.73,13.37,29h0l.43.4,19.92,19.51a31,31,0,0,0,43.84,0l-.24.24,57.08-58.3a6.39,6.39,0,0,0-9.13-8.95L519.26,354.5v-1c-2.11-10.88-5.83-20-12.27-31.59-7.6-14.3-13.14-32.74-1.51-57.59A6.38,6.38,0,1,0,494,258.71c-8.32,17-8.35,30.78-5.62,45.71l-3-2.9c-11.2-10.42-30.19-10.27-40.24.05l-.29.27h0C444.75,302,444.61,302.15,444.47,302.3Zm20.69,3c4.52.18,7.59,1.68,12.28,6.27l16.15,15.84c7.67,7.46,12.68,17.09,12.89,26.22a33,33,0,0,1-9.06,23.17h0c-4.87,3.61-9.91,3.94-14.86,1.11l-1.87-1.41-22.66-22a2.73,2.73,0,0,0-.23-.25l-.1-.07c-7.31-7.17-10.88-15.42-11-23.18a30.19,30.19,0,0,1,8.32-21.23l.2-.19h0c.12-.12.24-.24.35-.37A14,14,0,0,1,465.16,305.3Z" transform="translate(-187.34 -95.71)"/><path class="cls-1" d="M627.38,264.22l-.41.42v0Z" transform="translate(-187.34 -95.71)"/><path class="cls-1" d="M548,287.28c8.42,8.05,19.17,11.19,30,11.08s20.73-5,29-13.37h0c.14-.14.28-.29.4-.43L627,264.64a31,31,0,0,0,0-43.83l.25.24L568.9,164A6.39,6.39,0,0,0,560,173.1l40.24,39.39h-1c-10.88,2.11-20,5.83-31.59,12.27-14.3,7.59-32.74,13.14-57.58,1.51a6.38,6.38,0,1,0-5.62,11.46c17,8.32,30.78,8.35,45.71,5.62l-2.91,3c-10.42,11.2-10.26,30.19,0,40.24l.27.29h0Zm3-20.69c.19-4.52,1.69-7.59,6.27-12.28l15.85-16.15c7.45-7.67,17.08-12.68,26.22-12.9a33.07,33.07,0,0,1,23.17,9.07h0c3.6,4.87,3.94,9.91,1.11,14.86l-1.42,1.87-22,22.66-.24.23-.08.1c-7.16,7.31-15.41,10.88-23.18,11a30.18,30.18,0,0,1-21.22-8.32l-.19-.2h0c-.11-.12-.24-.24-.36-.35A14,14,0,0,1,551,266.59Z" transform="translate(-187.34 -95.71)"/><path class="cls-1" d="M509.92,104.37l.42.41h0Z" transform="translate(-187.34 -95.71)"/><path class="cls-1" d="M533,183.75c8-8.42,11.2-19.17,11.08-30.05s-5-20.73-13.37-29h0a4,4,0,0,0-.43-.4l-19.92-19.51a31,31,0,0,0-43.83,0l.24-.25-57.09,58.3a6.4,6.4,0,0,0,9.13,9l39.4-40.24q0,.49,0,1c2.11,10.88,5.83,19.95,12.27,31.59,7.59,14.3,13.13,32.74,1.5,57.58a6.39,6.39,0,0,0,11.47,5.62c8.32-17,8.35-30.78,5.61-45.71l3,2.91c11.21,10.42,30.2,10.26,40.25-.06l.29-.26h0A6.17,6.17,0,0,0,533,183.75Zm-20.69-3c-4.52-.18-7.58-1.68-12.28-6.26l-16.15-15.85c-7.67-7.46-12.68-17.09-12.89-26.22A33,33,0,0,1,480,109.25h0c4.87-3.6,9.9-3.94,14.85-1.11l1.87,1.42,22.66,22,.23.24.1.08c7.32,7.16,10.89,15.41,11,23.18a30.23,30.23,0,0,1-8.32,21.22l-.21.19h0c-.12.11-.23.24-.34.36A13.93,13.93,0,0,1,512.28,180.75Z" transform="translate(-187.34 -95.71)"/><path class="cls-1" d="M635.87,536.69a5.68,5.68,0,0,0,0-11.12,3.4,3.4,0,0,0-.46-.07l-.26,0-.23,0h-30.8a.58.58,0,0,1-.57-.58V501.25a.58.58,0,0,1,.57-.57h23.69l.6,0a5.68,5.68,0,0,0,.36-11.34,3.75,3.75,0,0,0-.47-.05H604.12a.58.58,0,0,1-.57-.57V469.9a.58.58,0,0,1,.57-.58h29.73l.22,0,.42,0a5.68,5.68,0,0,0,0-11.36l-.42,0-.22,0H597.33a5.67,5.67,0,0,0-5.52,5.52h0v67.79a5.52,5.52,0,0,0,5.52,5.52h37.6l.23,0,.26,0Z" transform="translate(-187.34 -95.71)"/><path class="cls-1" d="M304.53,536.69a5.68,5.68,0,0,0,0-11.12,3.25,3.25,0,0,0-.45-.07l-.27,0-.22,0h-30.8a.57.57,0,0,1-.57-.58V501.25a.57.57,0,0,1,.57-.57h23.69l.6,0a5.68,5.68,0,0,0,.35-11.34,3.41,3.41,0,0,0-.46-.05H272.79a.57.57,0,0,1-.57-.57V469.9a.57.57,0,0,1,.57-.58h29.73l.21,0,.43,0a5.68,5.68,0,0,0,0-11.36l-.43,0-.21,0H266a5.67,5.67,0,0,0-5.52,5.52h0v67.79a5.52,5.52,0,0,0,5.52,5.52h37.6l.22,0,.27,0Z" transform="translate(-187.34 -95.71)"/><path class="cls-1" d="M706.05,536.69a5.68,5.68,0,0,0,0-11.12,3.25,3.25,0,0,0-.45-.07l-.27,0-.22,0h-30.8a.58.58,0,0,1-.58-.58V501.25a.58.58,0,0,1,.58-.57H698a5.7,5.7,0,0,0,6.28-5.65,5.67,5.67,0,0,0-5.33-5.66,3.41,3.41,0,0,0-.46-.05H674.31a.58.58,0,0,1-.58-.57V469.9a.58.58,0,0,1,.58-.58H704l.21,0,.43,0a5.68,5.68,0,1,0,0-11.36l-.43,0-.21,0H667.51a5.67,5.67,0,0,0-5.52,5.52h0v69.24a4.08,4.08,0,0,0,4.08,4.07h39.05l.22,0,.27,0Z" transform="translate(-187.34 -95.71)"/><path class="cls-1" d="M763.26,492.89l-11-5c-5.72-2.57-9.76-4.84-9.76-10.51,0-6.76,6.34-9.17,12.28-9.17a18.78,18.78,0,0,1,14,6h0a5.69,5.69,0,0,0,8.77-7.26v0l-.06-.08h0a4,4,0,0,0-.4-.52,30.17,30.17,0,0,0-22.29-9.71c-14,0-24.13,8.88-24.13,21.12,0,13.58,11.37,18.63,16.81,21.05l10.81,4.87c7.57,3.42,10.65,5.45,10.65,11.87,0,6.63-5.66,10.92-14.43,10.92A23.35,23.35,0,0,1,737.25,519h-.08a5.8,5.8,0,0,0-7.35-.36h-.08l-.28.29c-.07.06-.15.1-.22.17a5.91,5.91,0,0,0-.2,8.19,34.09,34.09,0,0,0,25.44,10.79c15.41,0,26.18-9.37,26.18-22.78S771.68,496.69,763.26,492.89Z" transform="translate(-187.34 -95.71)"/></svg>